<?xml version="1.0" standalone="no"?>
<!DOCTYPE svg PUBLIC "-//W3C//DTD SVG 20010904//EN"
 "http://www.w3.org/TR/2001/REC-SVG-20010904/DTD/svg10.dtd">
<svg version="1.0" xmlns="http://www.w3.org/2000/svg"
 width="1280.000000pt" height="1280.000000pt" viewBox="0 0 1280.000000 1280.000000"
 preserveAspectRatio="xMidYMid meet">
<metadata>
Created by potrace 1.15, written by Peter Selinger 2001-2017
</metadata>
<g transform="translate(0.000000,1280.000000) scale(0.100000,-0.100000)"
fill="#000000" stroke="none">
<path d="M8095 11929 c-82 -4 -181 -12 -220 -18 -38 -7 -99 -11 -135 -10 -110
4 -389 -11 -500 -27 -219 -32 -295 -59 -395 -144 -32 -27 -69 -50 -81 -50 -11
0 -70 -24 -130 -54 -193 -96 -345 -214 -502 -390 -283 -318 -495 -682 -576
-993 -17 -64 -5 -79 18 -23 9 22 18 40 20 40 14 0 -34 -124 -99 -255 -80 -161
-164 -286 -271 -404 l-68 -73 -50 7 c-67 10 -134 7 -160 -7 -43 -22 -332 -230
-706 -507 -625 -463 -810 -584 -1370 -894 l-134 -75 -46 38 c-72 61 -117 79
-241 96 l-114 16 -127 -47 -127 -48 -74 -81 c-41 -44 -79 -92 -86 -104 -22
-41 -91 -252 -91 -277 0 -30 -5 -32 -110 -68 -64 -21 -128 -56 -265 -145 -99
-63 -224 -147 -277 -185 -87 -62 -102 -79 -149 -155 -29 -46 -80 -116 -113
-154 -94 -105 -109 -157 -141 -500 l-27 -276 202 -249 202 -248 237 -96 c130
-52 279 -116 332 -141 52 -24 106 -48 120 -51 13 -3 132 -18 264 -32 234 -25
246 -25 493 -13 302 14 890 -2 1217 -33 110 -11 342 -28 515 -39 602 -38 992
-125 1190 -266 70 -51 79 -60 68 -75 -7 -9 -47 -61 -89 -115 -80 -105 -181
-268 -250 -406 -23 -46 -54 -99 -69 -118 -15 -19 -48 -72 -75 -118 -112 -195
-147 -331 -126 -495 10 -83 8 -102 -29 -325 -57 -346 -88 -620 -96 -847 -6
-173 -9 -203 -25 -220 -53 -59 -52 -141 4 -203 18 -19 21 -37 23 -114 1 -82
-1 -97 -22 -128 -40 -61 -51 -71 -87 -81 -54 -15 -102 -51 -105 -81 -4 -35 34
-64 106 -79 31 -6 73 -17 93 -25 32 -11 44 -11 95 6 33 10 77 22 98 25 38 6
96 51 96 75 0 21 -48 59 -87 69 -43 12 -71 38 -99 91 -20 39 -20 68 -2 152 9
43 17 59 35 67 31 14 53 68 53 131 0 55 11 72 179 274 l66 78 5 -288 6 -289
74 -215 73 -215 1 -125 c0 -69 -4 -161 -8 -205 -5 -50 -4 -101 2 -137 9 -44 8
-72 -2 -121 -10 -46 -11 -79 -4 -119 8 -48 7 -61 -10 -94 -40 -78 -64 -207
-52 -274 8 -45 8 -45 -70 -150 -85 -114 -135 -191 -169 -258 l-21 -42 2205 0
2206 0 -20 28 c-11 15 -54 65 -97 111 -42 46 -102 124 -134 172 -50 76 -59 98
-75 179 -24 125 -78 234 -149 302 -58 57 -63 70 -90 233 -21 125 -32 155 -84
225 -27 36 -52 78 -56 93 -4 19 4 61 25 130 25 79 44 118 84 172 223 300 355
612 355 839 0 70 19 176 31 176 11 0 173 -217 233 -311 41 -65 48 -84 49 -131
2 -58 20 -91 46 -86 10 2 21 -8 28 -25 7 -16 21 -31 31 -34 10 -2 37 -41 63
-88 l44 -84 -24 -17 c-20 -15 -23 -22 -18 -59 9 -64 27 -96 51 -93 15 2 25 -6
36 -26 8 -17 25 -33 38 -36 18 -4 32 -24 58 -85 38 -86 38 -115 2 -145 -20
-16 -20 -20 -9 -66 16 -66 38 -97 61 -91 14 4 25 -5 39 -29 12 -19 28 -34 39
-34 30 0 45 -45 27 -80 -25 -49 -66 -221 -72 -305 -6 -95 10 -169 65 -290 53
-117 114 -214 169 -267 71 -69 256 -195 351 -239 l82 -39 890 0 890 0 -6 28
c-4 15 -20 65 -36 112 -16 47 -38 137 -49 200 -11 63 -36 174 -54 245 -19 72
-41 168 -49 215 -27 162 -209 523 -521 1034 -265 435 -443 818 -600 1291 -166
499 -395 1269 -524 1762 -87 332 -156 545 -221 686 -62 137 -196 329 -325 469
-58 62 -86 83 -160 120 -117 58 -222 78 -418 78 -147 0 -234 12 -392 52 -44
11 -120 23 -170 27 l-90 6 1 125 c0 131 6 164 75 465 30 133 89 456 89 490 0
3 -5 3 -12 -1 -8 -5 -9 -2 -4 12 4 10 12 62 17 114 6 52 13 97 16 100 5 4 1
-54 -12 -175 -4 -35 -2 -33 11 15 18 61 24 280 11 370 l-8 55 108 97 c59 54
149 126 200 160 198 135 292 233 399 414 30 52 58 94 60 94 3 0 23 -15 44 -33
77 -65 182 -84 270 -46 40 17 56 33 98 97 27 42 57 91 66 108 11 23 28 36 62
48 26 9 65 31 88 50 48 39 106 139 106 182 0 16 22 67 51 116 65 113 77 174
56 277 -14 69 -14 75 3 105 24 41 60 173 60 219 0 21 -7 53 -15 73 -10 25 -12
42 -5 60 6 14 10 54 10 90 0 35 5 84 12 109 10 38 10 53 -4 97 -10 29 -20 89
-23 133 -5 69 -11 88 -43 138 -29 46 -49 64 -94 88 -32 16 -70 29 -85 29 -49
0 -55 11 -38 59 8 24 15 76 15 116 0 121 -47 200 -126 212 -21 3 -51 12 -66
19 -72 37 -185 -1 -263 -88 -25 -28 -45 -46 -45 -40 0 5 -21 38 -47 73 -26 35
-65 96 -86 134 -116 204 -233 339 -377 434 -41 28 -98 68 -126 90 -183 143
-380 239 -587 286 -184 42 -317 49 -622 34z m-2215 -3119 c0 -6 9 -76 21 -158
14 -103 19 -168 14 -217 -4 -38 -9 -150 -11 -250 -3 -99 -13 -272 -22 -385
-19 -224 -17 -244 31 -395 14 -44 26 -87 26 -95 0 -8 5 -125 11 -260 12 -262
11 -278 -20 -342 -26 -54 -25 -56 6 -27 22 21 24 21 18 4 -4 -11 -19 -38 -32
-60 l-24 -40 36 34 36 35 -10 -33 -9 -33 21 18 c15 13 19 14 14 4 -4 -8 9 3
29 25 24 26 31 31 20 13 -26 -42 -14 -54 23 -23 25 21 31 23 25 8 -14 -41 50
42 78 101 37 75 46 153 54 446 5 219 6 240 11 240 2 0 24 -19 51 -42 99 -85
212 -116 462 -127 168 -7 175 -8 193 -32 24 -29 65 -108 84 -163 14 -40 14
-40 -16 -64 -17 -13 -40 -42 -51 -63 -28 -56 -38 -182 -23 -286 13 -88 9 -117
-33 -230 -14 -40 -18 -42 -62 -48 -25 -3 -69 -17 -96 -30 -74 -37 -86 -35
-174 33 -87 67 -140 83 -321 102 -52 5 -147 17 -210 26 -89 12 -215 17 -555
19 -457 2 -529 7 -795 52 -127 21 -172 33 -250 68 -52 23 -185 77 -295 120
-110 42 -280 118 -378 168 l-178 92 53 47 c29 27 70 56 91 64 38 17 87 66 87
88 0 6 62 74 138 149 126 124 142 137 174 137 59 0 124 69 111 119 -4 17 14
41 93 122 l99 100 60 3 c54 4 63 8 93 41 28 31 33 42 28 67 -5 27 -1 36 35 70
22 21 74 64 114 94 68 51 78 56 132 58 84 3 154 56 138 106 -8 24 33 63 150
141 68 45 96 58 114 54 13 -3 33 1 47 10 18 11 29 13 43 6 14 -8 28 -4 62 18
60 38 84 67 86 105 4 87 9 98 59 141 47 42 52 44 134 50 47 3 96 7 110 9 14 2
31 4 38 5 6 0 12 -4 12 -9z m-458 -272 c-9 -9 -15 -9 -24 0 -9 9 -7 12 12 12
19 0 21 -3 12 -12z m-462 -308 c-14 -11 -28 -20 -32 -20 -14 0 4 29 20 33 34
9 36 6 12 -13z m-416 -331 c-12 -13 -20 -16 -22 -9 -3 7 2 16 9 21 25 16 32 9
13 -12z m4403 -156 c-2 -16 -4 -5 -4 22 0 28 2 40 4 28 2 -13 2 -35 0 -50z
m-4780 -190 c-9 -9 -20 -13 -24 -9 -4 4 -1 11 7 16 25 16 35 11 17 -7z m4371
-268 c0 -22 -3 -19 -9 15 -10 60 -9 108 2 55 4 -22 8 -53 7 -70z m9 -137 c-2
-18 -4 -6 -4 27 0 33 2 48 4 33 2 -15 2 -42 0 -60z m360 40 c-3 -8 -6 -5 -6 6
-1 11 2 17 5 13 3 -3 4 -12 1 -19z m-121 -364 c-36 -175 -67 -330 -69 -344 -4
-22 -4 -22 -6 5 -1 24 45 260 126 650 4 16 8 25 10 19 2 -5 -26 -154 -61 -330z
m104 276 c-7 -28 -14 -49 -16 -47 -3 2 1 27 8 55 6 29 13 50 16 47 2 -2 -1
-27 -8 -55z m-293 8 c-3 -7 -5 -2 -5 12 0 14 2 19 5 13 2 -7 2 -19 0 -25z
m-2413 -238 c-4 -47 -10 -74 -12 -60 -2 14 0 68 4 120 5 55 10 80 12 60 2 -19
0 -73 -4 -120z m2534 -91 c-23 -117 -44 -206 -46 -198 -1 8 16 103 38 211 22
109 40 200 40 204 0 4 3 5 6 1 3 -3 -14 -101 -38 -218z m-51 -256 c-3 -10 -5
-4 -5 12 0 17 2 24 5 18 2 -7 2 -21 0 -30z m134 -101 c1 -40 -1 -75 -4 -79 -4
-3 -7 31 -7 77 0 101 8 103 11 2z m-144 36 c-3 -7 -5 -2 -5 12 0 14 2 19 5 13
2 -7 2 -19 0 -25z m-3798 -4288 c3 -61 43 -64 106 -9 l35 31 0 -28 c0 -16 -9
-44 -20 -62 -19 -31 -22 -32 -42 -18 -15 11 -26 12 -40 5 -50 -27 -95 84 -60
146 7 11 19 -28 21 -65z m56 -162 c-4 -13 -9 -31 -11 -40 -5 -18 -24 -25 -24
-9 0 32 15 71 27 71 10 0 12 -7 8 -22z m5 -98 c0 -5 -10 -10 -22 -9 -22 0 -22
1 -3 9 11 5 21 9 23 9 1 1 2 -3 2 -9z"/>
<path d="M5863 8035 c0 -22 2 -30 4 -17 2 12 2 30 0 40 -3 9 -5 -1 -4 -23z"/>
<path d="M5853 7890 c0 -36 2 -50 4 -32 2 17 2 47 0 65 -2 17 -4 3 -4 -33z"/>
<path d="M5873 7890 c0 -25 2 -35 4 -22 2 12 2 32 0 45 -2 12 -4 2 -4 -23z"/>
<path d="M5843 7730 c0 -41 2 -58 4 -37 2 20 2 54 0 75 -2 20 -4 3 -4 -38z"/>
<path d="M5862 7775 c0 -16 2 -22 5 -12 2 9 2 23 0 30 -3 6 -5 -1 -5 -18z"/>
<path d="M5911 7354 c0 -11 3 -14 6 -6 3 7 2 16 -1 19 -3 4 -6 -2 -5 -13z"/>
</g>
</svg>
